<svg width="16" height="16" viewBox="0 0 16 16" xmlns="http://www.w3.org/2000/svg">
<path fill-rule="evenodd" clip-rule="evenodd" d="M7.94868 3.3165C8.12333 2.79256 7.84017 2.22624 7.31623 2.05159C6.79228 1.87694 6.22596 2.1601 6.05132 2.68404C5.19198 5.26205 3.20206 6.43773 1.65757 7.06017C1.27393 7.19998 1 7.568 1 8C1 8.19065 1.05335 8.36883 1.14594 8.52044C1.25069 8.69241 1.40697 8.83225 1.59867 8.91621C1.61016 8.92125 1.62178 8.92608 1.63349 8.9307C3.18133 9.55062 5.18751 10.7251 6.05132 13.3165C6.22596 13.8404 6.79228 14.1236 7.31623 13.949C7.84017 13.7743 8.12333 13.208 7.94868 12.684C7.40856 11.0637 6.52396 9.87639 5.55271 9H14C14.5523 9 15 8.55228 15 8C15 7.44772 14.5523 7 14 7H5.55332C6.52433 6.12366 7.40867 4.93654 7.94868 3.3165Z" />
</svg>
