<svg width="58" height="74" viewBox="0 0 58 74" fill="none" xmlns="http://www.w3.org/2000/svg">
<path d="M25.3122 49.7922C25.98 47.3001 26.9313 45.2567 28.1661 43.6619C29.4589 42.0827 30.8924 40.7897 32.4666 39.7828C34.1143 38.7335 35.789 37.8157 37.4905 37.0293C39.2075 36.1849 40.8376 35.3172 42.3808 34.4263C43.9975 33.4929 45.3844 32.3737 46.5416 31.0688C47.7722 29.7214 48.6749 27.9755 49.2494 25.8312C50.1501 22.4697 49.5548 19.3597 47.4634 16.501C45.4455 13.5999 42.0024 11.4971 37.1342 10.1926C33.2512 9.15217 29.6977 8.85224 26.4738 9.29285C23.3234 9.69104 20.4079 10.8354 17.7272 12.726L15.1862 9.34312C18.2498 7.18241 21.7144 5.84349 25.58 5.32635C29.519 4.76679 33.8067 5.10817 38.4432 6.3505C42.3842 7.40648 45.6405 8.93123 48.2122 10.9248C50.8418 12.9338 52.6362 15.2781 53.5953 17.9577C54.628 20.5948 54.7405 23.4202 53.933 26.4339C53.2498 28.9839 52.2617 31.0486 50.9689 32.6278C49.7341 34.2225 48.2928 35.5445 46.6451 36.5938C45.0553 37.6587 43.4019 38.6132 41.6849 39.4576C39.9834 40.244 38.3243 41.1039 36.7076 42.0373C35.1489 42.9862 33.7465 44.1633 32.5003 45.5687C31.312 46.9896 30.4229 48.8012 29.8328 51.0035L25.3122 49.7922ZM22.7973 68.2192C21.812 67.9552 21.0649 67.3823 20.5557 66.5004C20.0622 65.5607 19.9396 64.6271 20.1881 63.6999C20.4521 62.7146 21.025 61.9674 21.9068 61.4583C22.7886 60.9492 23.7221 60.8266 24.7074 61.0906C25.7506 61.3702 26.5267 61.9508 27.0358 62.8326C27.545 63.7145 27.6675 64.648 27.4035 65.6332C27.1551 66.5605 26.5822 67.3077 25.6848 67.8748C24.803 68.3839 23.8405 68.4987 22.7973 68.2192Z" fill="#5BCEFB"/>
</svg>
