<svg width="128" height="127" viewBox="0 0 128 127" fill="none" xmlns="http://www.w3.org/2000/svg">
<g clip-path="url(#clip0_287_5630)">
<path d="M69.9306 11.02L71.9706 0.0100168L74.5206 0.480018L72.8706 9.42002L78.3906 10.44L78.0106 12.52L69.9406 11.03L69.9306 11.02Z" fill="#5BCEFB"/>
<path d="M84.2703 12.6603L89.8503 15.1003L89.0203 17.0103L81.0803 13.5303L85.5703 3.27026L93.3203 6.66026L92.4903 8.57026L87.1003 6.21026L84.2803 12.6603L84.2703 12.6603ZM85.9403 8.36025L90.8803 10.5203L90.0703 12.3703L85.1303 10.2103L85.9403 8.36025Z" fill="#5BCEFB"/>
<path d="M91.1402 18.0403L101.97 12.2903L103.99 13.8703L101.03 25.7803L98.8902 24.1003L101.76 13.7903L102.57 14.4203L93.2402 19.6703L91.1502 18.0303L91.1402 18.0403ZM94.5802 17.6903L96.3302 16.5603L100.87 20.1103L100.21 22.0903L94.5802 17.6803L94.5802 17.6903Z" fill="#5BCEFB"/>
<path d="M102.911 28.0002L111.841 21.2402L114.761 25.1102C115.371 25.9102 115.761 26.7002 115.941 27.4702C116.121 28.2502 116.081 28.9702 115.841 29.6502C115.591 30.3302 115.131 30.9302 114.461 31.4402C113.801 31.9402 113.101 32.2202 112.391 32.2702C111.671 32.3202 110.971 32.1502 110.271 31.7702C109.581 31.3902 108.931 30.7902 108.321 29.9902L106.261 27.2702L107.861 27.5002L104.471 30.0702L102.911 28.0002ZM107.641 27.6702L107.911 26.0202L109.881 28.6202C110.361 29.2602 110.861 29.6302 111.381 29.7402C111.901 29.8502 112.391 29.7102 112.881 29.3502C113.371 28.9802 113.641 28.5302 113.671 28.0102C113.701 27.4902 113.481 26.9102 113.001 26.2702L111.031 23.6702L112.711 23.8502L107.651 27.6802L107.641 27.6702ZM107.211 33.6802L108.761 28.9902L110.431 31.2002L108.901 35.9102L107.211 33.6802Z" fill="#5BCEFB"/>
<path d="M110.6 39.0003L121 34.8403L121.8 36.8303L116.77 45.9603L116.38 44.9903L123.87 41.9903L124.82 44.3703L114.42 48.5303L113.63 46.5603L118.65 37.4103L119.04 38.3803L111.55 41.3803L110.6 39.0003Z" fill="#5BCEFB"/>
<path d="M116.48 59.23L127.67 59.7L127.58 61.84L119.48 66.27L119.53 65.14L127.23 70.16L127.14 72.29L115.95 71.85L116.05 69.42L123.52 69.72L123.5 70.17L117.38 66.16L117.43 64.99L123.88 61.44L123.86 61.98L116.4 61.66L116.5 59.23L116.48 59.23Z" fill="#5BCEFB"/>
<path d="M112.959 81.07C113.259 80.24 113.669 79.52 114.199 78.91C114.729 78.3 115.329 77.83 116.009 77.49C116.689 77.15 117.409 76.96 118.179 76.91C118.939 76.86 119.719 76.98 120.499 77.27C121.279 77.55 121.949 77.96 122.509 78.48C123.069 79.01 123.499 79.62 123.799 80.32C124.099 81.02 124.259 81.77 124.279 82.57C124.299 83.37 124.159 84.18 123.859 85C123.559 85.83 123.149 86.55 122.619 87.15C122.089 87.75 121.499 88.22 120.819 88.56C120.139 88.9 119.419 89.09 118.659 89.15C117.899 89.21 117.119 89.09 116.329 88.8C115.549 88.52 114.869 88.11 114.309 87.58C113.749 87.05 113.319 86.44 113.019 85.74C112.719 85.04 112.559 84.3 112.539 83.51C112.519 82.71 112.659 81.91 112.959 81.08L112.959 81.07ZM115.039 81.81C114.869 82.28 114.789 82.74 114.809 83.2C114.829 83.65 114.929 84.09 115.119 84.49C115.309 84.9 115.579 85.26 115.929 85.58C116.279 85.9 116.709 86.14 117.209 86.32C117.709 86.5 118.199 86.58 118.669 86.57C119.139 86.55 119.579 86.45 119.989 86.26C120.399 86.07 120.749 85.81 121.059 85.47C121.369 85.13 121.599 84.72 121.769 84.25C121.939 83.78 122.019 83.32 121.999 82.86C121.979 82.4 121.879 81.97 121.689 81.56C121.499 81.15 121.229 80.79 120.869 80.48C120.519 80.17 120.089 79.92 119.589 79.74C119.099 79.56 118.609 79.48 118.139 79.5C117.659 79.52 117.219 79.62 116.809 79.8C116.399 79.99 116.039 80.25 115.739 80.59C115.429 80.93 115.199 81.34 115.029 81.81L115.039 81.81Z" fill="#5BCEFB"/>
<path d="M109.181 90.0103L118.301 96.5103L115.491 100.46C114.911 101.28 114.271 101.88 113.591 102.29C112.911 102.7 112.201 102.88 111.471 102.85C110.751 102.82 110.041 102.56 109.351 102.07C108.671 101.59 108.201 101.01 107.941 100.34C107.681 99.6703 107.631 98.9503 107.791 98.1703C107.951 97.3903 108.321 96.6003 108.901 95.7803L110.881 93.0003L111.141 94.6003L107.681 92.1303L109.181 90.0203L109.181 90.0103ZM110.911 94.4203L112.571 94.1903L110.671 96.8503C110.211 97.5003 110.001 98.0903 110.051 98.6103C110.101 99.1303 110.381 99.5703 110.871 99.9203C111.371 100.28 111.881 100.4 112.391 100.27C112.901 100.15 113.381 99.7603 113.851 99.1103L115.741 96.4503L116.071 98.1003L110.901 94.4103L110.911 94.4203ZM105.051 95.8003L109.981 95.8803L108.371 98.1303L103.421 98.0803L105.041 95.8003L105.051 95.8003Z" fill="#5BCEFB"/>
<path d="M100.27 103.88L95.6304 107.84L94.2804 106.26L100.88 100.63L108.15 109.15L101.71 114.64L100.36 113.06L104.84 109.24L100.27 103.88ZM103.41 107.26L99.3104 110.76L98.0004 109.23L102.1 105.73L103.41 107.27L103.41 107.26Z" fill="#5BCEFB"/>
<path d="M86.6504 110.95L85.5404 123.16L83.1204 123.99L74.7704 115.01L77.3404 114.13L84.4104 122.17L83.4404 122.5L84.1404 111.81L86.6504 110.95ZM85.0604 114.03L85.0404 116.11L79.5904 117.97L78.2904 116.34L85.0604 114.03Z" fill="#5BCEFB"/>
<path d="M71.9091 115.37L72.6191 126.55L67.1591 126.89C65.7491 126.98 64.6791 126.78 63.9391 126.29C63.1991 125.8 62.7991 125.12 62.7391 124.25C62.6991 123.66 62.8191 123.15 63.0691 122.7C63.3291 122.25 63.6991 121.89 64.1891 121.63C64.6791 121.37 65.2391 121.21 65.8891 121.17L65.6291 121.84C64.9291 121.88 64.2991 121.81 63.7391 121.62C63.1791 121.43 62.7391 121.11 62.4091 120.69C62.0791 120.26 61.8891 119.72 61.8491 119.07C61.7891 118.11 62.1191 117.34 62.8391 116.76C63.5591 116.17 64.6591 115.83 66.1291 115.74L71.9091 115.37ZM69.4591 117.48L66.4391 117.67C65.7691 117.71 65.2691 117.85 64.9391 118.09C64.6091 118.33 64.4591 118.69 64.4891 119.17C64.5191 119.64 64.7191 119.98 65.0691 120.18C65.4291 120.39 65.9491 120.47 66.6191 120.43L69.8291 120.23L69.9491 122.11L67.1891 122.28C66.5591 122.32 66.0891 122.46 65.7691 122.7C65.4491 122.94 65.2991 123.28 65.3291 123.73C65.3591 124.17 65.5491 124.48 65.8891 124.68C66.2391 124.88 66.7291 124.96 67.3591 124.92L69.9291 124.76L69.4691 117.48L69.4591 117.48Z" fill="#5BCEFB"/>
<path d="M52.7198 114.42C53.5898 114.61 54.3598 114.92 55.0298 115.36C55.6998 115.8 56.2598 116.33 56.6798 116.96C57.1098 117.59 57.3998 118.28 57.5498 119.03C57.6998 119.78 57.6898 120.57 57.5098 121.38C57.3298 122.19 57.0298 122.91 56.5798 123.54C56.1298 124.16 55.5898 124.67 54.9298 125.07C54.2798 125.46 53.5598 125.72 52.7698 125.85C51.9798 125.97 51.1598 125.95 50.2998 125.76C49.4298 125.57 48.6698 125.26 48.0098 124.83C47.3398 124.39 46.7998 123.86 46.3698 123.24C45.9398 122.62 45.6498 121.93 45.4898 121.18C45.3298 120.43 45.3398 119.65 45.5198 118.82C45.6898 118.01 46.0098 117.29 46.4598 116.66C46.9098 116.03 47.4598 115.52 48.1098 115.13C48.7498 114.74 49.4698 114.48 50.2598 114.35C51.0498 114.22 51.8698 114.25 52.7198 114.44L52.7198 114.42ZM52.2698 116.58C51.7798 116.47 51.3098 116.46 50.8598 116.54C50.4098 116.62 49.9998 116.78 49.6198 117.03C49.2398 117.28 48.9198 117.59 48.6598 117.99C48.3998 118.38 48.2098 118.84 48.0998 119.36C47.9898 119.88 47.9698 120.37 48.0498 120.84C48.1298 121.3 48.2898 121.73 48.5298 122.11C48.7698 122.49 49.0798 122.81 49.4598 123.06C49.8398 123.32 50.2798 123.5 50.7698 123.6C51.2598 123.7 51.7298 123.72 52.1798 123.64C52.6298 123.56 53.0398 123.4 53.4198 123.15C53.7998 122.9 54.1198 122.59 54.3798 122.2C54.6398 121.81 54.8298 121.35 54.9398 120.83C55.0498 120.32 55.0598 119.83 54.9798 119.36C54.8998 118.89 54.7398 118.47 54.4998 118.09C54.2598 117.71 53.9498 117.39 53.5698 117.14C53.1898 116.88 52.7498 116.7 52.2598 116.6L52.2698 116.58Z" fill="#5BCEFB"/>
<path d="M39.0704 109.4C40.4704 110.15 41.3604 111.13 41.7304 112.33C42.1004 113.53 41.9004 114.86 41.1204 116.31L38.1604 121.84L35.8804 120.62L38.8004 115.18C39.3004 114.24 39.4704 113.46 39.3104 112.84C39.1504 112.22 38.7204 111.72 38.0204 111.35C37.3204 110.98 36.6704 110.89 36.0704 111.1C35.4604 111.31 34.9104 111.88 34.4004 112.82L31.4804 118.26L29.2204 117.05L32.1804 111.52C32.9604 110.07 33.9504 109.17 35.1604 108.81C36.3704 108.45 37.6704 108.65 39.0704 109.4Z" fill="#5BCEFB"/>
<path d="M29.5391 103.11L23.4491 109.85L26.1091 112.25L24.6891 113.82L17.4491 107.28L18.8691 105.71L21.5291 108.11L27.6191 101.37L29.5391 103.11Z" fill="#5BCEFB"/>
<path d="M18 89.06L9.98 93.33L11.67 96.49L9.8 97.48L5.21 88.87L7.07 87.88L8.75 91.04L16.77 86.77L17.99 89.06L18 89.06Z" fill="#5BCEFB"/>
<path d="M13.3392 78.1803L13.9492 80.7003L3.06922 83.3403L2.45922 80.8203L13.3392 78.1803ZM1.25922 75.8803L0.649224 73.3603L11.5292 70.7203L12.1392 73.2403L1.25922 75.8803ZM7.63922 74.1303L8.92922 79.4503L6.79922 79.9703L5.50922 74.6503L7.63922 74.1303Z" fill="#5BCEFB"/>
<path d="M9.15961 63.7501L9.26961 57.6601L11.3496 57.7001L11.1896 66.3701L-0.0103912 66.1701L0.139611 57.7101L2.21961 57.7501L2.11961 63.6401L9.15961 63.7601L9.15961 63.7501ZM4.54961 63.8601L4.64961 58.4701L6.66961 58.5101L6.56961 63.9001L4.54961 63.8601Z" fill="#5BCEFB"/>
<path d="M13.3895 47.5103L3.08952 43.1103L5.08952 38.4303C5.56952 37.3103 6.19952 36.4203 6.98952 35.7503C7.77952 35.0803 8.65952 34.6703 9.62952 34.5103C10.5995 34.3603 11.6095 34.5103 12.6595 34.9503C13.6995 35.3903 14.4995 36.0203 15.0695 36.8303C15.6295 37.6403 15.9495 38.5603 16.0095 39.6003C16.0695 40.6403 15.8595 41.7103 15.3895 42.8303L13.3895 47.5103ZM12.4495 44.2903L13.3795 42.1103C13.6695 41.4203 13.7995 40.7703 13.7595 40.1603C13.7195 39.5403 13.5095 38.9903 13.1495 38.5103C12.7895 38.0303 12.2795 37.6403 11.6395 37.3703C10.9795 37.0903 10.3595 36.9903 9.75952 37.0603C9.16952 37.1403 8.62953 37.3703 8.14953 37.7703C7.66953 38.1603 7.28952 38.7003 6.99952 39.3903L6.06952 41.5703L12.4595 44.3003L12.4495 44.2903Z" fill="#5BCEFB"/>
<path d="M18.8297 35.3901L13.2097 24.4901L14.8097 22.4901L26.6797 25.5801L24.9797 27.7001L14.6997 24.7201L15.3397 23.9201L20.4897 33.3101L18.8297 35.3801L18.8297 35.3901ZM18.5197 31.9401L17.4097 30.1701L21.0097 25.6701L22.9897 26.3501L18.5197 31.9301L18.5197 31.9401Z" fill="#5BCEFB"/>
<path d="M30.4207 22.7L24.8207 15.54L22.0007 17.75L20.7007 16.09L28.3907 10.08L29.6907 11.74L26.8707 13.95L32.4707 21.11L30.4307 22.71L30.4207 22.7Z" fill="#5BCEFB"/>
<path d="M36.1991 18.1401L36.0691 5.88013L38.3991 4.81013L47.6191 12.9001L45.1491 14.0301L37.3091 6.75013L38.2391 6.32014L38.6191 17.0201L36.2091 18.1301L36.1991 18.1401ZM37.4691 14.9201L37.2691 12.8401L42.5091 10.4401L43.9691 11.9401L37.4691 14.9201Z" fill="#5BCEFB"/>
<path d="M57.909 6.98026C57.479 7.02026 57.089 6.92026 56.769 6.66026C56.439 6.40026 56.259 6.04025 56.209 5.58025C56.159 5.11025 56.269 4.72026 56.539 4.41026C56.809 4.10026 57.159 3.92026 57.589 3.88026C58.049 3.83026 58.429 3.93025 58.749 4.19025C59.059 4.44025 59.249 4.80026 59.289 5.27026C59.339 5.74026 59.229 6.13025 58.979 6.44025C58.719 6.76025 58.369 6.94026 57.909 6.98026Z" fill="#5BCEFB"/>
</g>
<path d="M60.5914 76.91C60.5914 74.33 60.9814 72.11 61.7614 70.25C62.6014 68.39 63.6514 66.77 64.9114 65.39C66.2314 63.95 67.6114 62.63 69.0514 61.43C70.4914 60.17 71.8414 58.91 73.1014 57.65C74.4214 56.33 75.4714 54.89 76.2514 53.33C77.0914 51.71 77.5114 49.79 77.5114 47.57C77.5114 44.09 76.1314 41.24 73.3714 39.02C70.6714 36.74 66.8014 35.6 61.7614 35.6C57.7414 35.6 54.2314 36.23 51.2314 37.49C48.2914 38.69 45.7714 40.55 43.6714 43.07L40.3414 40.46C42.7414 37.58 45.7414 35.39 49.3414 33.89C53.0014 32.33 57.2314 31.55 62.0314 31.55C66.1114 31.55 69.6514 32.18 72.6514 33.44C75.7114 34.7 78.0514 36.5 79.6714 38.84C81.3514 41.12 82.1914 43.82 82.1914 46.94C82.1914 49.58 81.7714 51.83 80.9314 53.69C80.1514 55.55 79.1014 57.2 77.7814 58.64C76.5214 60.08 75.1714 61.43 73.7314 62.69C72.2914 63.89 70.9114 65.15 69.5914 66.47C68.3314 67.79 67.2814 69.29 66.4414 70.97C65.6614 72.65 65.2714 74.63 65.2714 76.91H60.5914ZM62.9314 95.36C61.9114 95.36 61.0414 95 60.3214 94.28C59.6014 93.5 59.2414 92.63 59.2414 91.67C59.2414 90.65 59.6014 89.78 60.3214 89.06C61.0414 88.34 61.9114 87.98 62.9314 87.98C64.0114 87.98 64.9114 88.34 65.6314 89.06C66.3514 89.78 66.7114 90.65 66.7114 91.67C66.7114 92.63 66.3514 93.5 65.6314 94.28C64.9114 95 64.0114 95.36 62.9314 95.36Z" fill="#5BCEFB"/>
<defs>
<clipPath id="clip0_287_5630">
<rect width="127.67" height="126.91" fill="none" transform="translate(127.67 126.91) rotate(-180)"/>
</clipPath>
</defs>
</svg>
